<svg width="16" height="16" viewBox="0 0 16 16" fill="none" xmlns="http://www.w3.org/2000/svg">
<path d="M4.85867 9.14217C4.73067 9.01416 4.66667 8.85572 4.66667 8.66683C4.66667 8.47794 4.73067 8.31972 4.85867 8.19216C4.98667 8.06461 5.14489 8.00061 5.33333 8.00016C5.52178 7.99972 5.68022 8.06372 5.80867 8.19216C5.93711 8.32061 6.00089 8.47883 6 8.66683C5.99911 8.85483 5.93511 9.01328 5.808 9.14217C5.68089 9.27105 5.52267 9.33483 5.33333 9.3335C5.144 9.33216 4.98578 9.26816 4.85867 9.1415M7.52533 9.1415C7.39733 9.01439 7.33333 8.85616 7.33333 8.66683C7.33333 8.4775 7.39733 8.31928 7.52533 8.19216C7.65333 8.06505 7.81156 8.00105 8 8.00016C8.18844 7.99928 8.34689 8.06328 8.47533 8.19216C8.60378 8.32105 8.66756 8.47928 8.66667 8.66683C8.66578 8.85439 8.60178 9.01283 8.47467 9.14217C8.34756 9.2715 8.18933 9.33528 8 9.3335C7.81067 9.33172 7.65244 9.26772 7.52533 9.1415ZM10.192 9.1415C10.064 9.01439 10 8.85616 10 8.66683C10 8.4775 10.064 8.31928 10.192 8.19216C10.32 8.06505 10.4782 8.00105 10.6667 8.00016C10.8551 7.99928 11.0136 8.06328 11.142 8.19216C11.2704 8.32105 11.3342 8.47928 11.3333 8.66683C11.3324 8.85439 11.2684 9.01283 11.1413 9.14217C11.0142 9.2715 10.856 9.33528 10.6667 9.3335C10.4773 9.33172 10.3191 9.26772 10.192 9.1415ZM3.33333 14.6668C2.96667 14.6668 2.65289 14.5364 2.392 14.2755C2.13111 14.0146 2.00044 13.7006 2 13.3335V4.00016C2 3.6335 2.13067 3.31972 2.392 3.05883C2.65333 2.79794 2.96711 2.66728 3.33333 2.66683H4V2.00017C4 1.81128 4.064 1.65305 4.192 1.5255C4.32 1.39794 4.47822 1.33394 4.66667 1.3335C4.85511 1.33305 5.01356 1.39705 5.142 1.5255C5.27044 1.65394 5.33422 1.81217 5.33333 2.00017V2.66683H10.6667V2.00017C10.6667 1.81128 10.7307 1.65305 10.8587 1.5255C10.9867 1.39794 11.1449 1.33394 11.3333 1.3335C11.5218 1.33305 11.6802 1.39705 11.8087 1.5255C11.9371 1.65394 12.0009 1.81217 12 2.00017V2.66683H12.6667C13.0333 2.66683 13.3473 2.7975 13.6087 3.05883C13.87 3.32016 14.0004 3.63394 14 4.00016V13.3335C14 13.7002 13.8696 14.0142 13.6087 14.2755C13.3478 14.5368 13.0338 14.6673 12.6667 14.6668H3.33333ZM3.33333 13.3335H12.6667V6.66683H3.33333V13.3335Z" fill="#404040"/>
</svg>
